<svg xmlns="http://www.w3.org/2000/svg" viewBox="0 0 64 64" width="64" height="64"><g class="nc-icon-wrapper" stroke-linecap="round" stroke-linejoin="round" stroke-width="2" fill="#111111" stroke="#111111"><path d="M54,52.115a7.95,7.95,0,0,0-3.782-6.8A35.46,35.46,0,0,0,32,40a35.46,35.46,0,0,0-18.218,5.316A7.95,7.95,0,0,0,10,52.115V62H54Z" fill="none" stroke="#111111" stroke-miterlimit="10"></path> <path d="M32,40l-3.364,1.442A6,6,0,0,0,25,46.956V62" fill="none" stroke="#111111" stroke-miterlimit="10" data-cap="butt"></path> <circle cx="32" cy="47" r="1" fill="none" stroke-miterlimit="10" data-cap="butt" data-color="color-2"></circle> <circle cx="32" cy="47" r="1" data-cap="butt" data-color="color-2" data-stroke="none" stroke="none"></circle> <circle cx="32" cy="55" r="1" fill="none" stroke-miterlimit="10" data-cap="butt" data-color="color-2"></circle> <circle cx="32" cy="55" r="1" data-cap="butt" data-color="color-2" data-stroke="none" stroke="none"></circle> <path d="M42,24v6A10,10,0,0,1,32,40h0A10,10,0,0,1,22,30V24" fill="none" stroke="#111111" stroke-miterlimit="10"></path> <path d="M42,4a5.941,5.941,0,0,0-3.608,1.234,7.934,7.934,0,0,0-12.784,0A5.991,5.991,0,1,0,22,16v8H42V16A6,6,0,0,0,42,4Z" fill="none" stroke-miterlimit="10" data-color="color-2"></path> <line x1="28" y1="24" x2="28" y2="19" fill="none" stroke-miterlimit="10" data-color="color-2"></line> <line x1="36" y1="24" x2="36" y2="19" fill="none" stroke-miterlimit="10" data-color="color-2"></line></g></svg>